<svg width="30" height="26" viewBox="0 0 30 26" fill="none" xmlns="http://www.w3.org/2000/svg">
<path d="M13.7271 24.9553C14.0691 25.305 14.529 25.5 15.0112 25.5C15.4879 25.5 15.9589 25.2993 16.2954 24.9553L26.3723 14.6514C27.9032 13.086 28.7444 11.0046 28.75 8.79702C28.75 6.58372 27.9088 4.50229 26.378 2.93693C24.8471 1.37156 22.8171 0.511468 20.6525 0.511468C18.5272 0.511468 16.5253 1.34289 15.0056 2.85665C13.4803 1.33716 11.4728 0.5 9.34186 0.5C7.18291 0.5 5.15294 1.36009 3.62204 2.91972C2.09115 4.48509 1.25 6.56651 1.25 8.77982C1.25 10.9874 2.09676 13.0688 3.62765 14.6342L13.7271 24.9553ZM4.59778 3.91743C5.86511 2.62156 7.55302 1.90482 9.34747 1.90482C11.1419 1.90482 12.8354 2.62156 14.1084 3.92317L14.5233 4.34748C14.6523 4.47936 14.8262 4.5539 15.0112 4.5539C15.1907 4.5539 15.3701 4.47936 15.4991 4.34748L15.9028 3.93463C17.1758 2.63303 18.8637 1.91628 20.6637 1.91628C22.4582 1.91628 24.1461 2.63303 25.4134 3.9289C26.6864 5.2305 27.3817 6.95642 27.3817 8.79128C27.3817 10.6261 26.6808 12.3521 25.4078 13.6537L15.3252 23.9633C15.1626 24.1296 14.8654 24.1296 14.6972 23.9633L4.60338 13.6422C3.33044 12.3406 2.62949 10.6147 2.62949 8.77982C2.62949 6.94495 3.33044 5.21904 4.59778 3.91743Z" fill="#0B0B0C" stroke="#0B0B0C"/>
</svg>
