<svg width="86" height="86" viewBox="0 0 86 86" fill="none" xmlns="http://www.w3.org/2000/svg">
<g filter="url(#filter0_d_127_290)">
<rect x="16" y="12" width="54" height="54" rx="12" fill="white" shape-rendering="crispEdges"/>
<g clip-path="url(#clip0_127_290)">
<path d="M51.9523 33.0276C51.9323 32.9686 51.9113 32.8747 51.8863 32.7688C51.7214 32.0982 51.5665 31.4647 50.954 31.2309L48.0461 30.1247C47.4825 29.9108 46.8509 29.9878 46.3533 30.3345L46.1734 30.4954C46.0275 30.6623 45.8296 30.8711 45.6887 31.0051H40.3307C40.2117 30.8801 40.0528 30.6963 39.92 30.5314L39.7121 30.3365C39.2145 29.9888 38.5809 29.9088 38.0204 30.1247L35.1094 31.2309C34.4999 31.4627 34.347 32.0893 34.184 32.7538C34.1591 32.8547 34.1381 32.9466 34.1461 32.9466C34.1461 32.9466 34.147 32.9466 34.1481 32.9457C33.1568 34.9002 28.4422 44.7951 32.856 47.716C33.4876 48.1337 34.3279 48.0678 34.9025 47.5542L38.3621 44.4524C38.6669 44.1786 39.0546 44.0277 39.4523 44.0277H46.6121C47.0099 44.0277 47.3966 44.1785 47.7024 44.4524L51.1619 47.5542C51.4877 47.8459 51.8933 47.9948 52.299 47.9948C52.6248 47.9948 52.9496 47.8979 53.2304 47.7001C57.1256 44.967 53.6161 36.4851 51.9523 33.0276ZM46.9949 34.0029C47.5465 34.0029 47.9941 34.4505 47.9941 35.0021C47.9941 35.5537 47.5465 36.0014 46.9949 36.0014C46.4433 36.0014 45.9956 35.5537 45.9956 35.0021C45.9956 34.4505 46.4433 34.0029 46.9949 34.0029ZM40.9992 38.9993H39.9999V39.9986C39.9999 40.5502 39.5532 40.9978 39.0006 40.9978C38.4481 40.9978 38.0014 40.5502 38.0014 39.9986V38.9993H37.0021C36.4495 38.9993 36.0028 38.5516 36.0028 38C36.0028 37.4484 36.4495 37.0008 37.0021 37.0008H38.0014V36.0015C38.0014 35.4499 38.4481 35.0022 39.0006 35.0022C39.5532 35.0022 39.9999 35.4499 39.9999 36.0015V37.0008H40.9992C41.5518 37.0008 41.9984 37.4484 41.9984 38C41.9984 38.5516 41.5518 38.9993 40.9992 38.9993ZM44.9963 38C44.4447 38 43.997 37.5524 43.997 37.0008C43.997 36.4492 44.4447 36.0015 44.9963 36.0015C45.5479 36.0015 45.9956 36.4492 45.9956 37.0008C45.9956 37.5524 45.5479 38 44.9963 38ZM46.9949 39.9986C46.4433 39.9986 45.9956 39.5509 45.9956 38.9993C45.9956 38.4477 46.4433 38 46.9949 38C47.5465 38 47.9941 38.4477 47.9941 38.9993C47.9941 39.5509 47.5465 39.9986 46.9949 39.9986ZM48.9934 38C48.4418 38 47.9941 37.5524 47.9941 37.0008C47.9941 36.4492 48.4418 36.0015 48.9934 36.0015C49.545 36.0015 49.9927 36.4492 49.9927 37.0008C49.9927 37.5524 49.545 38 48.9934 38Z" fill="#0B0B0C"/>
</g>
</g>
<defs>
<filter id="filter0_d_127_290" x="0" y="0" width="86" height="86" filterUnits="userSpaceOnUse" color-interpolation-filters="sRGB">
<feFlood flood-opacity="0" result="BackgroundImageFix"/>
<feColorMatrix in="SourceAlpha" type="matrix" values="0 0 0 0 0 0 0 0 0 0 0 0 0 0 0 0 0 0 127 0" result="hardAlpha"/>
<feOffset dy="4"/>
<feGaussianBlur stdDeviation="8"/>
<feComposite in2="hardAlpha" operator="out"/>
<feColorMatrix type="matrix" values="0 0 0 0 0.345833 0 0 0 0 0.345833 0 0 0 0 0.345833 0 0 0 0.08 0"/>
<feBlend mode="normal" in2="BackgroundImageFix" result="effect1_dropShadow_127_290"/>
<feBlend mode="normal" in="SourceGraphic" in2="effect1_dropShadow_127_290" result="shape"/>
</filter>
<clipPath id="clip0_127_290">
<rect width="24" height="24" fill="white" transform="translate(31 27)"/>
</clipPath>
</defs>
</svg>
